<svg width="100%" height="100%" viewBox="0 0 213 213" version="1.1" xmlns="http://www.w3.org/2000/svg" xmlns:xlink="http://www.w3.org/1999/xlink" xml:space="preserve" xmlns:serif="http://www.serif.com/" style="fill-rule:evenodd;clip-rule:evenodd;stroke-linejoin:round;stroke-miterlimit:2;"><g><path d="M72.667,157.459c0,7.27 -0.578,13.14 -1.736,17.611c-1.157,4.471 -2.97,8.233 -5.439,11.287c-2.469,3.053 -5.632,5.361 -9.49,6.924c-3.857,1.563 -8.525,2.345 -14.003,2.345c-2.469,0 -4.571,-0.146 -6.307,-0.436c-1.736,-0.291 -3.067,-0.618 -3.993,-0.982c-0.926,-0.363 -1.562,-0.781 -1.909,-1.254c-0.348,-0.472 -0.598,-1.018 -0.753,-1.636c-0.154,-0.618 -0.25,-1.254 -0.289,-1.908c-0.039,-0.654 -0.058,-1.454 -0.058,-2.399c0,-1.309 0.058,-2.435 0.174,-3.381c0.116,-0.945 0.308,-1.708 0.578,-2.29c0.27,-0.581 0.579,-0.999 0.926,-1.254c0.347,-0.254 0.791,-0.381 1.331,-0.381c0.463,0 1.37,0.091 2.72,0.272c1.35,0.182 2.912,0.273 4.687,0.273c2.546,0 4.725,-0.364 6.539,-1.091c1.813,-0.727 3.298,-1.908 4.455,-3.544c1.157,-1.635 2.006,-3.762 2.546,-6.379c0.54,-2.617 0.81,-6.579 0.81,-11.886l0,-102.398c0,-0.509 0.155,-0.981 0.463,-1.417c0.309,-0.437 0.83,-0.8 1.562,-1.091c0.733,-0.291 1.717,-0.509 2.952,-0.654c1.234,-0.146 2.777,-0.218 4.629,-0.218c1.851,0 3.394,0.072 4.629,0.218c1.234,0.145 2.218,0.363 2.951,0.654c0.733,0.291 1.254,0.654 1.562,1.091c0.309,0.436 0.463,0.908 0.463,1.417l0,102.507Z" style="fill:#000100;fill-rule:nonzero;"/><path d="M108.877,113.792l0,50.858c0,0.509 -0.155,1 -0.463,1.473c-0.309,0.472 -0.849,0.836 -1.62,1.09c-0.772,0.254 -1.794,0.473 -3.067,0.654c-1.273,0.182 -2.874,0.273 -4.803,0.273c-1.852,0 -3.433,-0.091 -4.745,-0.273c-1.311,-0.181 -2.353,-0.4 -3.125,-0.654c-0.771,-0.254 -1.311,-0.618 -1.62,-1.09c-0.308,-0.473 -0.463,-0.964 -0.463,-1.473l0,-135.439c0,-0.581 0.155,-1.09 0.463,-1.527c0.309,-0.436 0.849,-0.781 1.62,-1.035c0.772,-0.255 1.814,-0.473 3.125,-0.655c1.312,-0.182 2.893,-0.272 4.745,-0.272c1.929,0 3.53,0.09 4.803,0.272c1.273,0.182 2.295,0.4 3.067,0.655c0.771,0.254 1.311,0.599 1.62,1.035c0.308,0.437 0.463,0.946 0.463,1.527l0,62.704l53.004,-62.704c0.463,-0.654 1.003,-1.199 1.62,-1.636c0.617,-0.436 1.369,-0.781 2.257,-1.036c0.887,-0.254 1.967,-0.454 3.24,-0.599c1.273,-0.146 2.913,-0.218 4.919,-0.218c2.006,0 3.626,0.09 4.86,0.272c1.235,0.182 2.218,0.418 2.951,0.709c0.733,0.291 1.235,0.654 1.505,1.091c0.27,0.436 0.405,0.908 0.405,1.417c0,0.945 -0.251,1.89 -0.752,2.835c-0.502,0.946 -1.447,2.254 -2.836,3.926l-49.648,55.943l53.467,66.956c1.312,1.89 2.103,3.18 2.373,3.871c0.27,0.691 0.405,1.254 0.405,1.69c0,0.582 -0.135,1.109 -0.405,1.581c-0.27,0.473 -0.791,0.855 -1.563,1.146c-0.771,0.29 -1.813,0.527 -3.124,0.708c-1.312,0.182 -3.009,0.273 -5.092,0.273c-2.701,0 -4.9,-0.109 -6.597,-0.327c-1.697,-0.218 -2.97,-0.618 -3.819,-1.2c-0.849,-0.581 -1.543,-1.236 -2.083,-1.963l-46.897,-60.065l-8.19,9.207Z" style="fill:#000100;fill-rule:nonzero;"/><circle cx="62.82" cy="27.494" r="10.648" style="fill:#000100;"/></g></svg>